<svg width="32" height="32" viewBox="0 0 32 32" fill="none" xmlns="http://www.w3.org/2000/svg">
<path d="M1.2805 9.78166C2.0903 7.88122 3.2353 6.17642 4.7155 4.6952C6.1956 3.21397 7.8712 2.06812 9.7702 1.25764C11.753 0.419214 13.8475 0 15.9979 0C18.1762 0 20.2707 0.419214 22.2256 1.25764C24.1246 2.06812 25.8282 3.21397 27.3083 4.6952C28.7884 6.17642 29.9334 7.88122 30.7433 9.78166C31.5811 11.738 32 13.8341 32 16.014C32 18.1659 31.5811 20.262 30.7433 22.2463C29.9334 24.1467 28.7884 25.8515 27.3083 27.3328C25.8282 28.814 24.1246 29.9598 22.2256 30.7424C20.2428 31.5808 18.1483 32 15.9979 32C13.8475 32 11.753 31.5808 9.7702 30.7424C7.8712 29.9319 6.1677 28.786 4.6875 27.3048C3.2074 25.8236 2.0624 24.1188 1.2525 22.2183C0.414701 20.2341 -0.00419998 18.138 -0.00419998 15.986C-0.00419998 13.8341 0.4426 11.738 1.2805 9.78166ZM21.304 14.5048C20.6617 11.9336 18.3158 10.0611 15.5511 10.0611H4.4362C3.7101 11.4306 3.2633 12.9397 3.0957 14.5048H21.304ZM3.0957 17.5231C3.2633 19.0882 3.738 20.5974 4.4362 21.9668H15.5511C18.3158 21.9668 20.6338 20.0664 21.304 17.5231H3.0957ZM25.1859 6.81921C22.7283 4.35983 19.4608 3.01834 15.9979 3.01834C12.535 3.01834 9.2675 4.35983 6.81 6.81921C6.7262 6.90306 6.6703 6.95895 6.5866 7.0428H15.5511C17.9528 7.0428 20.1869 7.96507 21.8905 9.66987C23.231 11.0114 24.0967 12.6882 24.376 14.5048H28.9001C28.565 11.5983 27.2804 8.91528 25.1859 6.81921ZM15.9979 29.0096C19.4608 29.0096 22.7283 27.6681 25.1859 25.2087C27.2804 23.1127 28.565 20.4017 28.9001 17.5231H24.376C24.0688 19.3397 23.203 21.0166 21.8905 22.3581C20.1869 24.0629 17.9528 24.9852 15.5511 24.9852H6.5866C6.6703 25.069 6.7262 25.1249 6.81 25.2087C9.2675 27.6681 12.535 29.0096 15.9979 29.0096Z" fill="black"/>
</svg>
