<?xml version="1.0" encoding="utf-8"?>
<!-- Generator: Adobe Illustrator 27.4.0, SVG Export Plug-In . SVG Version: 6.00 Build 0)  -->
<svg version="1.1" id="Layer_1" xmlns="http://www.w3.org/2000/svg" xmlns:xlink="http://www.w3.org/1999/xlink" x="0px" y="0px"
	 viewBox="0 0 1244 1244" style="enable-background:new 0 0 1244 1244;" xml:space="preserve">
<style type="text/css">
	.st0{fill:#BFBFBF;}
</style>
<g>
	<path class="st0" d="M273.4,111.3l-8.4,6l17.3,24.2l-3.6,2.6l-17.3-24.2l-8.4,6l-2.2-3.1l20.4-14.6L273.4,111.3z"/>
	<path class="st0" d="M299.9,89.8l18,28.3l-3.8,2.4l-8-12.6l-13.6,8.7l8,12.6l-3.8,2.4l-18-28.3l3.8-2.4l7.9,12.5l13.6-8.7
		l-7.9-12.5L299.9,89.8z"/>
	<path class="st0" d="M342.9,99.6l1.8,3.3l-18.4,10.3L310,83.9l18.2-10.2l1.8,3.3l-14.3,8l5.3,9.5l13.5-7.5l1.8,3.3l-13.5,7.5
		l5.6,10L342.9,99.6z"/>
	<path class="st0" d="M350.7,62.2l18.7-8.7l1.6,3.4l-14.7,6.9l4.6,9.8l13.4-6.3l1.6,3.4l-13.4,6.3l6.4,13.7l-4,1.9L350.7,62.2z"/>
	<path class="st0" d="M402.3,76.9c-8,3.2-13.8-0.5-16.5-7.1l-8.1-20l4.1-1.7l8.1,20c1.8,4.5,5.7,7.4,10.9,5.3s6-6.9,4.2-11.4
		l-8.1-20l4.1-1.7l8.1,20C411.9,66.9,410.4,73.7,402.3,76.9z"/>
	<path class="st0" d="M434.3,32.8l-9.7,3.3l9.6,28.2l-4.2,1.4l-9.6-28.2l-9.7,3.3l-1.2-3.6l23.7-8.1L434.3,32.8z"/>
	<path class="st0" d="M462.9,56.3c-8.3,2.3-13.7-2.1-15.6-8.8l-5.8-20.8l4.3-1.2l5.8,20.8c1.3,4.7,4.9,8,10.3,6.4
		c5.4-1.5,6.8-6.2,5.4-10.8L461.5,21l4.3-1.2l5.8,20.8C473.5,47.4,471.2,53.9,462.9,56.3z"/>
	<path class="st0" d="M477.1,17l11.7-2.6c7.5-1.6,12,1.7,13.1,6.9c1,4.7-1.5,8.4-5,10c3.3,0.1,4.9,2.4,7,6.3
		c1.6,2.8,2.7,4.5,4.4,6.4l0.1,0.5l-4.6,1c-1.6-2-3.1-4.9-4.6-7.2c-1.8-2.8-3.7-5-7.6-4.1l-5.9,1.3l2.9,13.4l-4.4,1L477.1,17z
		 M492.1,30.2c4.6-1,6.3-4,5.5-7.9c-0.6-2.9-2.8-5.3-8.4-4.1l-6.9,1.5l2.6,12L492.1,30.2z"/>
	<path class="st0" d="M536.7,35.9l0.6,3.7L516.6,43l-5.4-33.1l20.6-3.4l0.6,3.7l-16.2,2.7l1.8,10.7l15.2-2.5l0.6,3.7l-15.2,2.5
		l1.8,11.3L536.7,35.9z"/>
	<path class="st0" d="M561,3.1l3.4,33.4l-4.4,0.4l-3.4-33.4L561,3.1z"/>
	<path class="st0" d="M585.6,31.8c3.9-0.2,7.2-2.3,6.9-6.4c-0.3-4.1-3.8-4.6-8.1-5.6c-5.6-1.3-11.4-2.6-11.9-8.9
		c-0.5-6.5,4.6-10,10.7-10.4c6.7-0.4,11.3,2.7,12.3,9.4l-4.5,0.3c-0.9-4.2-3.1-6.2-7.5-5.9c-3.7,0.2-6.7,2-6.5,6
		c0.2,3.4,3.6,4.5,8.1,5.5c5.7,1.2,11.5,2.1,11.9,9.2c0.4,6.8-5.2,10.2-11.2,10.5c-7.3,0.5-13.1-2.7-13.6-10.4l4.5-0.3
		C577.2,29.9,580.8,32.1,585.6,31.8z"/>
	<path class="st0" d="M620.1,0l12.2,0.2c5.7,0.1,9.8,3.5,9.7,9.1c-0.1,3.5-2.1,5.9-5.4,7.3v0c3.8,0.7,6.7,3.3,6.6,7.7
		c-0.1,6.2-4.6,9.4-11.7,9.3l-11.9-0.2L620.1,0z M632.3,30c3.7,0.1,6.4-2,6.4-5.6c0.1-3.6-2.5-5.7-6.2-5.7l-8.2-0.1l-0.2,11.4
		L632.3,30z M631.3,14.8c3.9,0.1,6.3-1.8,6.3-5.6c0.1-3.8-2.3-5.2-6.2-5.3l-6.9-0.1l-0.2,10.9L631.3,14.8z"/>
	<path class="st0" d="M654.1,0.8l12,0.8c7.6,0.5,11,5,10.7,10.3c-0.3,4.8-3.8,7.6-7.6,8.2c3.2,1.1,4,3.7,5,8
		c0.7,3.2,1.3,5.1,2.4,7.4l0,0.5l-4.7-0.3c-1-2.4-1.6-5.5-2.4-8.2c-1-3.2-2.1-5.8-6.2-6.1l-6-0.4l-0.9,13.7l-4.5-0.3L654.1,0.8z
		 M664.8,17.7c4.7,0.3,7.2-2.1,7.5-6c0.2-3-1.2-5.9-6.9-6.3l-7.1-0.5l-0.8,12.3L664.8,17.7z"/>
	<path class="st0" d="M692.8,4.1l-3.7,33.3l-4.4-0.5l3.7-33.3L692.8,4.1z"/>
	<path class="st0" d="M731.3,26.2L728.3,43l-3.2-0.5l0.6-5.8c-2.3,3.6-6.1,5.7-12.2,4.8c-10.8-1.7-15-10.8-13.5-19.9
		c1.4-9,8.6-16.4,19.4-14.8c8.4,1.3,12.1,7,12.7,12.8l-4.4-0.7c-0.6-4.1-3-7.5-8.9-8.4c-8.2-1.3-13.3,4.8-14.4,11.7
		c-1.1,6.9,1.9,14.3,9.7,15.5c5.4,0.8,11.2-1.2,12.5-8.7l-10.6-1.6l0.6-3.6L731.3,26.2z"/>
	<path class="st0" d="M769.1,17.5l-7.2,32.7l-4.4-1l3.2-14.6L745,31.2l-3.2,14.6l-4.4-1l7.2-32.7l4.4,1l-3.2,14.5l15.8,3.5l3.2-14.5
		L769.1,17.5z"/>
	<path class="st0" d="M800.8,30l-9.9-2.8l-8,28.7l-4.3-1.2l8-28.7l-9.9-2.8l1-3.6l24.1,6.7L800.8,30z"/>
	<path class="st0" d="M801.1,55.5l-1.7,5.4l-4.9-1.5l1.7-5.4L801.1,55.5z"/>
	<path class="st0" d="M842.8,65.9l-13.1-5l-7,7.8l-4.3-1.6l23.7-26.8l5.2,2L847,78l-4.3-1.6L842.8,65.9z M832.3,57.9l10.6,4.1
		l0.5-17l-0.1-0.1L832.3,57.9z"/>
	<path class="st0" d="M872.5,52.6l3.1,24.7c0.3,2.4,0.6,4.7,0.9,7.1c1-2.1,1.7-4,2.7-6.1l8.6-18.8l4.1,1.9l-13.9,30.5l-5.1-2.3
		L869.6,65c-0.3-2.3-0.5-4.6-0.9-6.9c-1,2.1-1.8,4.2-2.8,6.3l-8.3,18.3l-4.1-1.9l13.9-30.5L872.5,52.6z"/>
	<path class="st0" d="M918.9,93.8c-4.6,8.7-13.6,12.4-23.1,7.3l-9.2-4.9l15.7-29.6l8.9,4.7C921,76.5,923.5,85.1,918.9,93.8z
		 M915,91.7c4-7.6,0.9-13.6-5.2-16.9l-5.2-2.8l-12.2,23l5.3,2.8C903.7,101.1,910.8,99.6,915,91.7z"/>
	<path class="st0" d="M950.9,94.1l-17.7,28.5l-3.8-2.4l17.7-28.5L950.9,94.1z"/>
	<path class="st0" d="M976.8,115.6l-8.5-5.7l-16.6,24.7l-3.7-2.5l16.6-24.7l-8.5-5.7l2.1-3.1l20.8,14L976.8,115.6z"/>
	<path class="st0" d="M997.6,126.2l9.6,7.6c4.5,3.5,5.7,8.7,2.2,13.1c-2.2,2.8-5.2,3.4-8.8,2.5l0,0c2.6,2.9,3.3,6.7,0.6,10.1
		c-3.9,4.9-9.3,4.7-14.9,0.3l-9.4-7.4L997.6,126.2z M989.1,157.4c2.9,2.3,6.3,2.3,8.5-0.6c2.2-2.8,1.4-6.1-1.5-8.3l-6.5-5.1l-7,8.9
		L989.1,157.4z M997.4,144.7c3.1,2.4,6.1,2.4,8.4-0.6c2.3-3,1.4-5.5-1.7-8l-5.4-4.3l-6.7,8.6L997.4,144.7z"/>
	<path class="st0" d="M1020.2,183.7l-2.5,2.8l-15.8-13.9l22.1-25.2l15.7,13.8l-2.5,2.8l-12.4-10.8l-7.1,8.2l11.6,10.2l-2.5,2.8
		l-11.6-10.2l-7.5,8.6L1020.2,183.7z"/>
	<path class="st0" d="M1041.6,204.1l-2.6,2.7l-14.9-14.4l23.3-24.1l3.2,3.1l-20.7,21.4L1041.6,204.1z"/>
	<path class="st0" d="M1077.8,223.7c-6.9,6.4-17.3,7.1-24.7-0.8c-7.4-8-5.8-18.3,1.1-24.7c6.9-6.4,17.3-7.1,24.7,0.8
		C1086.3,207,1084.8,217.3,1077.8,223.7z M1074.8,220.4c5.2-4.8,7-12.7,1.4-18.9c-5.7-6.1-13.7-4.9-18.9-0.1
		c-5.2,4.8-7,12.7-1.4,18.9C1061.6,226.4,1069.6,225.2,1074.8,220.4z"/>
	<path class="st0" d="M1100.2,224.3l-8.2,23.5c-0.8,2.3-1.6,4.5-2.4,6.8c1.8-1.5,3.3-2.8,5.1-4.3l16-13l2.8,3.5l-26,21.1l-3.5-4.3
		l8.1-23.4c0.7-2.2,1.6-4.4,2.3-6.6c-1.8,1.5-3.5,2.9-5.3,4.4l-15.6,12.7l-2.8-3.5l26-21.1L1100.2,224.3z"/>
	<path class="st0" d="M1124.7,284.2l-14.2,9.6l-1.9-2.6l4.6-3.6c-4.2,0.9-8.4-0.4-12-5.4c-6.3-8.9-2.7-18.3,4.8-23.6
		c7.5-5.3,17.8-5.3,24.1,3.6c4.9,6.9,3.4,13.5-0.3,18l-2.6-3.6c2.5-3.2,3.3-7.3-0.2-12.2c-4.8-6.7-12.8-6.2-18.5-2.2
		s-8.9,11.3-4.3,17.8c3.2,4.4,8.6,7.2,15,2.8l-6.3-8.7l3-2.1L1124.7,284.2z"/>
	<path class="st0" d="M1124.2,309.7c2.1,3.3,5.4,5.2,8.9,3.1c3.5-2.2,2.3-5.5,1.1-9.8c-1.5-5.6-3.1-11.2,2.2-14.7
		c5.4-3.6,11-0.7,14.2,4.4c3.6,5.7,3,11.2-2.4,15.2l-2.4-3.8c3.3-2.8,3.9-5.7,1.6-9.4c-2-3.1-4.9-5-8.4-2.8c-2.9,1.8-2.3,5.3-1,9.7
		c1.6,5.6,3.6,11.1-2.4,14.8c-5.8,3.6-11.4,0.3-14.6-4.8c-3.9-6.2-3.8-12.8,2.6-16.9l2.4,3.8
		C1121.8,301.4,1121.6,305.6,1124.2,309.7z"/>
	<path class="st0" d="M1175.5,346.3l-4.8-9.1l-26.4,13.8l-2.1-4l26.4-13.8l-4.8-9.1l3.3-1.7l11.6,22.2L1175.5,346.3z"/>
	<path class="st0" d="M1180.2,387.4c-8.6,3.9-18.7,1.3-23.2-8.5c-4.5-9.9,0.2-19.2,8.8-23.1c8.6-3.9,18.7-1.3,23.2,8.5
		C1193.5,374.2,1188.8,383.5,1180.2,387.4z M1178.4,383.4c6.4-2.9,10.7-9.9,7.2-17.5c-3.5-7.6-11.5-9-17.9-6s-10.7,9.9-7.2,17.5
		C1163.9,384.9,1172,386.3,1178.4,383.4z"/>
	<path class="st0" d="M1208.3,425.4l-3.5-9.7l-28,10l-1.5-4.2l28-10l-3.5-9.7l3.5-1.3l8.4,23.6L1208.3,425.4z"/>
	<path class="st0" d="M1221.8,456.7l-32.1,9.6l-1.3-4.3l14.3-4.3l-4.6-15.5l-14.3,4.3l-1.3-4.3l32.1-9.6l1.3,4.3l-14.2,4.2l4.6,15.5
		l14.2-4.2L1221.8,456.7z"/>
	<path class="st0" d="M1200.6,495.4l-3.7,0.9l-4.9-20.5l32.6-7.7l4.8,20.3l-3.7,0.9l-3.8-16l-10.6,2.5l3.6,15l-3.7,0.9l-3.6-15
		l-11.1,2.6L1200.6,495.4z"/>
	<path class="st0" d="M1228.1,537.2c-5.8,0.9-10.8-3.3-11.8-9.9l-1-6.4l-13.2,2.1l-0.7-4.4l33.1-5.3l1.8,11.1
		C1237.3,531,1233.8,536.3,1228.1,537.2z M1227.4,532.8c3.9-0.6,5.9-3.5,5.1-8.3l-1-6.3l-12.5,2l1,6
		C1220.7,531.1,1223.5,533.4,1227.4,532.8z"/>
	<path class="st0" d="M1211.8,568.7l-3.7,0.4l-2.2-20.9l33.3-3.6l2.2,20.8l-3.7,0.4l-1.8-16.3l-10.8,1.2l1.7,15.4l-3.7,0.4
		l-1.7-15.4l-11.3,1.2L1211.8,568.7z"/>
	<path class="st0" d="M1227.2,609.3c-9.4,0.5-17.9-5.7-18.4-16.5s7.3-17.8,16.7-18.2c9.4-0.5,17.9,5.7,18.4,16.5
		S1236.7,608.9,1227.2,609.3z M1227,604.9c7-0.3,13.6-5.2,13.2-13.6c-0.4-8.4-7.4-12.6-14.4-12.2c-7,0.3-13.6,5.2-13.2,13.6
		C1213,601,1220,605.2,1227,604.9z"/>
	<path class="st0" d="M1233.5,641.2c-5.8-0.1-10-5.1-9.9-11.8l0.1-6.5l-13.3-0.2l0.1-4.5l33.5,0.5l-0.2,11.3
		C1243.7,636.7,1239.4,641.3,1233.5,641.2z M1233.6,636.7c3.9,0.1,6.4-2.4,6.5-7.3l0.1-6.3l-12.7-0.2l-0.1,6.1
		C1227.3,633.9,1229.7,636.7,1233.6,636.7z"/>
	<path class="st0" d="M1212.3,669.2l-3.8-0.2l1.2-20.7l33.5,2l-0.3,4.5l-29.7-1.8L1212.3,669.2z"/>
	<path class="st0" d="M1209.4,697.6l-3.7-0.4l2.3-20.9l33.3,3.6l-2.3,20.8l-3.7-0.4l1.8-16.3l-10.8-1.2l-1.7,15.4l-3.7-0.4l1.7-15.4
		l-11.3-1.2L1209.4,697.6z"/>
	<path class="st0" d="M1212.7,755.1c-9.3-1.8-16-9.8-13.9-20.4c2.1-10.6,11.3-15.5,20.6-13.7c9.3,1.8,16,9.8,13.9,20.4
		C1231.2,752,1222,756.9,1212.7,755.1z M1213.5,750.7c6.9,1.3,14.4-1.8,16-10c1.6-8.2-4.2-14-11.1-15.3c-6.9-1.3-14.4,1.8-16,10.1
		C1200.8,743.6,1206.6,749.4,1213.5,750.7z"/>
	<path class="st0" d="M1226.7,768l-5.1,20l-3.6-0.9l4-15.7l-10.5-2.7l-3.7,14.4l-3.6-0.9l3.7-14.4l-14.7-3.8l1.1-4.3L1226.7,768z"/>
	<path class="st0" d="M1204,831l3.3-9.7l-28.2-9.5l1.4-4.2l28.2,9.5l3.3-9.7l3.6,1.2l-8,23.7L1204,831z"/>
	<path class="st0" d="M1195.2,863.9l-31.1-12.4l1.7-4.1l13.9,5.5l6-15l-13.9-5.5l1.7-4.1l31.1,12.4l-1.7,4.1l-13.8-5.5l-6,15
		l13.8,5.5L1195.2,863.9z"/>
	<path class="st0" d="M1154.6,881.2l-3.4-1.6l8.9-19.1l30.4,14.1l-8.8,19l-3.4-1.6l6.9-14.9l-9.8-4.6l-6.5,14l-3.4-1.6l6.5-14
		l-10.4-4.8L1154.6,881.2z"/>
	<path class="st0" d="M1169.3,917.9l-24.7-7.4l-3.6-1.1l0,0l2.8,2.6l18.9,17.4l-3,5.3l-24.5-7.8l-3.7-1.1l0,0l2.8,2.6l18.7,17.8
		l-2.3,4.1l-18.4-18.2l-6.2-6.1l3-5.2l28.3,9.1l0,0l-15.5-14.4l-6.4-5.9l3-5.2l8.4,2.4l24.9,7.1L1169.3,917.9z"/>
	<path class="st0" d="M1113.6,975.4c-7.8-5.3-10.9-15.3-4.8-24.2s16.5-9.8,24.3-4.5c7.8,5.3,10.9,15.3,4.8,24.2
		C1131.8,979.8,1121.4,980.7,1113.6,975.4z M1116.1,971.7c5.8,4,14,4,18.7-2.9s1.6-14.5-4.2-18.4c-5.8-4-14-4-18.7,2.9
		S1110.2,967.7,1116.1,971.7z"/>
	<path class="st0" d="M1121.3,992.9l-7.4,9.5c-4.7,6.1-10.3,6.4-14.5,3.2c-3.8-2.9-4.2-7.4-2.6-10.9c-2.7,2-5.3,1.3-9.4-0.3
		c-3-1.2-4.9-1.7-7.5-2.1l-0.4-0.3l2.9-3.8c2.5,0.5,5.5,1.7,8.2,2.6c3.2,1,6,1.5,8.5-1.7l3.7-4.8l-10.9-8.4l2.7-3.5L1121.3,992.9z
		 M1101.4,992.4c-2.9,3.8-2.3,7.2,0.9,9.6c2.4,1.8,5.6,2.2,9.1-2.3l4.3-5.6l-9.7-7.5L1101.4,992.4z"/>
	<path class="st0" d="M1063.7,1016.5l-2.9-2.4l13.5-15.7l25.4,21.9l-2.9,3.4l-22.6-19.4L1063.7,1016.5z"/>
	<path class="st0" d="M1049.6,1051.2c-7.1-6.8-8.2-16.5-0.8-24.2l7.2-7.5l24.2,23.2l-7,7.3
		C1065.6,1057.8,1056.7,1057.9,1049.6,1051.2z M1052.7,1047.9c6.2,5.9,12.8,4.6,17.7-0.5l4.1-4.2l-18.8-18l-4.2,4.4
		C1046.7,1034.6,1046.2,1041.7,1052.7,1047.9z"/>
	<path class="st0" d="M1011,1084.4c-2.6-3-2.3-7.4,0.7-10c3-2.6,7.4-2.2,10,0.8c2.5,3,2.2,7.3-0.8,9.9
		C1017.9,1087.6,1013.5,1087.3,1011,1084.4z"/>
	<path class="st0" d="M970.8,1132.5l8.4-6l-17.3-24.2l3.6-2.6l17.3,24.2l8.4-6l2.2,3.1l-20.4,14.6L970.8,1132.5z"/>
	<path class="st0" d="M944.4,1154l-18-28.3l3.8-2.4l8,12.6l13.6-8.7l-8-12.6l3.8-2.4l18,28.3l-3.8,2.4l-8-12.5l-13.6,8.7l8,12.5
		L944.4,1154z"/>
	<path class="st0" d="M901.4,1144.3l-1.8-3.3l18.4-10.3l16.4,29.3l-18.2,10.2l-1.8-3.3l14.3-8l-5.3-9.5l-13.5,7.6l-1.8-3.3l13.5-7.6
		l-5.6-10L901.4,1144.3z"/>
	<path class="st0" d="M893.6,1181.7l-18.7,8.8l-1.6-3.4l14.7-6.9l-4.6-9.8l-13.4,6.3l-1.6-3.4l13.4-6.3l-6.4-13.7l4-1.9
		L893.6,1181.7z"/>
	<path class="st0" d="M841.9,1167c8-3.2,13.8,0.5,16.5,7.1l8.1,20l-4.1,1.7l-8.1-20c-1.8-4.5-5.7-7.4-10.9-5.3
		c-5.2,2.1-6,6.9-4.2,11.4l8.1,20l-4.1,1.7l-8.1-20C832.3,1177,833.9,1170.2,841.9,1167z"/>
	<path class="st0" d="M810,1211.1l9.7-3.3l-9.6-28.2l4.2-1.4l9.6,28.2l9.7-3.3l1.2,3.6l-23.7,8.1L810,1211.1z"/>
	<path class="st0" d="M781.4,1187.7c8.3-2.3,13.7,2,15.6,8.8l5.9,20.8l-4.3,1.2l-5.9-20.8c-1.3-4.7-4.9-8-10.3-6.4
		c-5.4,1.5-6.7,6.2-5.4,10.9l5.9,20.8l-4.3,1.2l-5.9-20.8C770.8,1196.6,773.1,1190,781.4,1187.7z"/>
	<path class="st0" d="M767.3,1226.9l-11.7,2.6c-7.5,1.6-12-1.7-13.1-6.9c-1-4.7,1.5-8.4,5-10c-3.3-0.1-4.9-2.4-7-6.3
		c-1.6-2.8-2.7-4.5-4.4-6.4l-0.1-0.5l4.6-1c1.6,2,3.1,4.9,4.6,7.2c1.8,2.8,3.7,5,7.6,4.1l5.9-1.3l-2.9-13.4l4.4-1L767.3,1226.9z
		 M752.3,1213.8c-4.6,1-6.3,4-5.5,7.9c0.6,2.9,2.8,5.3,8.4,4.1l6.9-1.5l-2.6-12L752.3,1213.8z"/>
	<path class="st0" d="M707.6,1208l-0.6-3.7l20.8-3.4l5.4,33.1l-20.6,3.4l-0.6-3.7l16.2-2.7l-1.7-10.7l-15.2,2.5l-0.6-3.7l15.2-2.5
		l-1.8-11.3L707.6,1208z"/>
	<path class="st0" d="M683.3,1240.9l-3.4-33.4l4.4-0.4l3.4,33.4L683.3,1240.9z"/>
	<path class="st0" d="M658.7,1212.2c-3.9,0.2-7.2,2.3-6.9,6.4c0.3,4.1,3.8,4.6,8.1,5.6c5.6,1.3,11.4,2.6,11.9,8.9
		c0.5,6.5-4.6,10-10.7,10.4c-6.7,0.4-11.3-2.7-12.3-9.4l4.5-0.3c0.9,4.2,3.1,6.2,7.5,5.9c3.7-0.2,6.7-2,6.4-6
		c-0.2-3.4-3.6-4.5-8.1-5.5c-5.7-1.2-11.5-2.1-11.9-9.2c-0.4-6.8,5.2-10.2,11.2-10.5c7.3-0.5,13.1,2.7,13.6,10.4l-4.5,0.3
		C667.2,1214,663.6,1211.9,658.7,1212.2z"/>
	<path class="st0" d="M624.2,1244l-12.2-0.2c-5.7-0.1-9.8-3.5-9.7-9.1c0.1-3.5,2.1-5.9,5.4-7.3l0,0c-3.8-0.7-6.7-3.3-6.6-7.7
		c0.1-6.2,4.6-9.4,11.7-9.3l11.9,0.2L624.2,1244z M612,1214c-3.7-0.1-6.4,2-6.4,5.6c-0.1,3.6,2.5,5.7,6.2,5.7l8.2,0.1l0.2-11.4
		L612,1214z M613.1,1229.2c-3.9-0.1-6.3,1.8-6.3,5.6c-0.1,3.8,2.3,5.3,6.2,5.3l6.9,0.1l0.2-10.9L613.1,1229.2z"/>
	<path class="st0" d="M590.3,1243.2l-12-0.8c-7.6-0.5-11-5-10.7-10.3c0.3-4.8,3.8-7.6,7.6-8.2c-3.2-1.1-4-3.7-5-8
		c-0.7-3.2-1.3-5.1-2.4-7.4l0-0.5l4.7,0.3c1,2.4,1.6,5.5,2.4,8.2c1,3.2,2.1,5.8,6.2,6.1l6,0.4l0.9-13.7l4.5,0.3L590.3,1243.2z
		 M579.6,1226.3c-4.7-0.3-7.2,2.1-7.5,6c-0.2,3,1.2,5.9,6.9,6.3l7.1,0.5l0.8-12.3L579.6,1226.3z"/>
	<path class="st0" d="M551.5,1239.9l3.7-33.3l4.4,0.5l-3.7,33.3L551.5,1239.9z"/>
	<path class="st0" d="M513.1,1217.9l3-16.8l3.2,0.5l-0.6,5.8c2.3-3.6,6.1-5.8,12.2-4.8c10.8,1.7,15,10.8,13.6,19.9
		c-1.4,9.1-8.6,16.4-19.4,14.8c-8.4-1.3-12.1-7-12.7-12.8l4.4,0.7c0.6,4.1,3,7.4,8.9,8.4c8.2,1.3,13.3-4.8,14.4-11.7
		c1.1-6.9-1.9-14.3-9.7-15.5c-5.4-0.8-11.2,1.2-12.5,8.8l10.6,1.6l-0.6,3.6L513.1,1217.9z"/>
	<path class="st0" d="M475.2,1226.6l7.2-32.7l4.4,1l-3.2,14.6l15.8,3.5l3.2-14.6l4.4,1l-7.2,32.7l-4.4-1l3.2-14.5l-15.8-3.5
		l-3.2,14.5L475.2,1226.6z"/>
	<path class="st0" d="M443.4,1214.1l9.9,2.8l8-28.7l4.3,1.2l-8,28.7l9.9,2.8l-1,3.6l-24.1-6.7L443.4,1214.1z"/>
	<path class="st0" d="M443.2,1188.6l1.7-5.4l4.9,1.5l-1.7,5.4L443.2,1188.6z"/>
	<path class="st0" d="M401.4,1178.2l13.1,5l7-7.8l4.3,1.6l-23.7,26.8l-5.2-2l0.3-35.8l4.3,1.6L401.4,1178.2z M412,1186.2l-10.6-4.1
		l-0.5,17l0.1,0.1L412,1186.2z"/>
	<path class="st0" d="M371.9,1191.6l-3.1-24.7c-0.3-2.4-0.6-4.8-0.9-7.1c-1,2.1-1.7,4-2.7,6.1l-8.5,18.8l-4.1-1.8l13.9-30.5l5.1,2.3
		l3.1,24.5c0.3,2.3,0.5,4.6,0.9,6.9c1-2.1,1.8-4.2,2.8-6.3l8.3-18.3l4.1,1.8l-13.9,30.5L371.9,1191.6z"/>
	<path class="st0" d="M325.4,1150.4c4.6-8.7,13.6-12.4,23.1-7.3l9.2,4.9l-15.7,29.6l-8.9-4.7C323.3,1167.6,320.8,1159,325.4,1150.4z
		 M329.3,1152.5c-4,7.6-0.9,13.6,5.2,16.9l5.2,2.8l12.2-23l-5.3-2.8C340.6,1143.1,333.5,1144.5,329.3,1152.5z"/>
	<path class="st0" d="M293.4,1150.1l17.6-28.5l3.8,2.3l-17.6,28.5L293.4,1150.1z"/>
	<path class="st0" d="M267.5,1128.6l8.5,5.7l16.6-24.7l3.7,2.5l-16.6,24.7l8.5,5.7l-2.1,3.1l-20.8-14L267.5,1128.6z"/>
	<path class="st0" d="M246.7,1118l-9.6-7.6c-4.5-3.5-5.7-8.7-2.2-13.2c2.2-2.8,5.2-3.4,8.8-2.6l0,0c-2.6-2.9-3.3-6.7-0.6-10.1
		c3.9-4.9,9.3-4.7,15-0.3l9.4,7.4L246.7,1118z M246.8,1099.5c-3.1-2.4-6.1-2.3-8.4,0.6c-2.3,3-1.4,5.6,1.7,8l5.4,4.3l6.7-8.6
		L246.8,1099.5z M255.1,1086.8c-2.9-2.3-6.3-2.3-8.5,0.6c-2.2,2.8-1.4,6.1,1.5,8.4l6.5,5.1l7-8.9L255.1,1086.8z"/>
	<path class="st0" d="M224.1,1060.6l2.5-2.8l15.8,13.9l-22.1,25.2l-15.7-13.8l2.5-2.8l12.4,10.8l7.1-8.2l-11.6-10.2l2.5-2.8
		l11.6,10.2l7.5-8.6L224.1,1060.6z"/>
	<path class="st0" d="M202.6,1040.1l2.6-2.7l14.9,14.4l-23.3,24.1l-3.2-3.1l20.7-21.4L202.6,1040.1z"/>
	<path class="st0" d="M166.4,1020.6c6.9-6.4,17.3-7.2,24.7,0.8s5.9,18.3-1.1,24.7c-6.9,6.4-17.3,7.2-24.7-0.8
		C157.9,1037.3,159.5,1027,166.4,1020.6z M169.4,1023.9c-5.2,4.8-7,12.7-1.3,18.9c5.7,6.1,13.7,4.9,18.9,0.1
		c5.2-4.8,7-12.7,1.3-18.9C182.6,1017.8,174.6,1019.1,169.4,1023.9z"/>
	<path class="st0" d="M144,1020l8.2-23.5c0.8-2.3,1.6-4.5,2.4-6.8c-1.8,1.5-3.3,2.8-5.1,4.3l-16,13l-2.8-3.5l26-21.2l3.5,4.3
		l-8.1,23.4c-0.7,2.2-1.6,4.4-2.3,6.6c1.8-1.5,3.5-2.9,5.3-4.4l15.6-12.7l2.8,3.5l-26,21.1L144,1020z"/>
	<path class="st0" d="M119.5,960.1l14.2-9.6l1.9,2.6l-4.6,3.6c4.2-0.9,8.4,0.4,12,5.4c6.3,8.9,2.7,18.3-4.8,23.6
		c-7.5,5.3-17.8,5.3-24.1-3.6c-4.9-6.9-3.4-13.5,0.3-18l2.6,3.6c-2.5,3.2-3.3,7.3,0.2,12.2c4.8,6.7,12.8,6.2,18.5,2.1
		c5.7-4.1,8.9-11.3,4.3-17.8c-3.2-4.4-8.7-7.2-15-2.8l6.3,8.7l-3,2.1L119.5,960.1z"/>
	<path class="st0" d="M120,934.6c-2.1-3.3-5.4-5.2-8.9-3.1c-3.5,2.2-2.3,5.5-1.1,9.8c1.5,5.6,3.1,11.2-2.2,14.7
		c-5.4,3.6-11,0.7-14.2-4.4c-3.6-5.7-3-11.2,2.4-15.2l2.4,3.8c-3.3,2.8-3.9,5.7-1.6,9.4c2,3.1,4.9,5,8.4,2.8c2.9-1.8,2.3-5.3,1-9.7
		c-1.6-5.6-3.6-11.1,2.4-14.9c5.8-3.6,11.4-0.3,14.6,4.8c3.9,6.2,3.8,12.8-2.6,16.9l-2.4-3.8C122.3,942.9,122.6,938.7,120,934.6z"/>
	<path class="st0" d="M68.7,898l4.8,9.1l26.4-13.8l2.1,3.9l-26.4,13.8l4.8,9.1L77,922l-11.6-22.2L68.7,898z"/>
	<path class="st0" d="M63.9,856.9c8.6-3.9,18.7-1.3,23.2,8.5c4.5,9.9-0.2,19.2-8.8,23.1c-8.6,3.9-18.7,1.3-23.2-8.5
		C50.6,870.1,55.3,860.8,63.9,856.9z M65.8,861c-6.4,2.9-10.7,9.9-7.2,17.5c3.5,7.6,11.5,8.9,17.9,6c6.4-2.9,10.7-9.9,7.2-17.5
		C80.2,859.4,72.2,858,65.8,861z"/>
	<path class="st0" d="M35.8,818.9l3.5,9.7l28-10.1l1.5,4.2l-28,10.1l3.5,9.7l-3.5,1.3l-8.5-23.6L35.8,818.9z"/>
	<path class="st0" d="M22.3,787.7l32.1-9.6l1.3,4.3l-14.3,4.3l4.6,15.5l14.3-4.3l1.3,4.3l-32.1,9.6l-1.3-4.3l14.2-4.2l-4.6-15.5
		L23.6,792L22.3,787.7z"/>
	<path class="st0" d="M43.4,748.9l3.7-0.9l4.9,20.5l-32.6,7.7l-4.8-20.3l3.7-0.9l3.8,16l10.6-2.5l-3.6-15l3.7-0.9l3.6,15l11.1-2.6
		L43.4,748.9z"/>
	<path class="st0" d="M16,707.2c5.8-0.9,10.8,3.3,11.8,9.9l1,6.4l13.2-2.1l0.7,4.4l-33.1,5.3L7.8,720C6.8,713.4,10.2,708.1,16,707.2
		z M16.7,711.6c-3.9,0.6-5.9,3.5-5.1,8.3l1,6.3l12.5-2l-1-6C23.4,713.3,20.6,710.9,16.7,711.6z"/>
	<path class="st0" d="M32.2,675.6l3.7-0.4l2.3,20.9l-33.3,3.6L2.6,679l3.7-0.4l1.8,16.3l10.8-1.2l-1.7-15.4L21,678l1.7,15.4
		l11.3-1.2L32.2,675.6z"/>
	<path class="st0" d="M16.8,635c9.4-0.5,17.9,5.7,18.4,16.5c0.5,10.8-7.3,17.8-16.7,18.2c-9.4,0.5-17.9-5.7-18.4-16.5
		S7.3,635.4,16.8,635z M17,639.4c-7,0.3-13.6,5.2-13.2,13.6c0.4,8.4,7.4,12.6,14.4,12.2c7-0.3,13.6-5.2,13.2-13.6
		C31,643.3,24,639.1,17,639.4z"/>
	<path class="st0" d="M10.5,603.2c5.8,0.1,10,5.1,9.9,11.8l-0.1,6.5l13.3,0.2l-0.1,4.5L0,625.6l0.2-11.3
		C0.3,607.7,4.6,603.1,10.5,603.2z M10.4,607.6c-3.9-0.1-6.4,2.4-6.5,7.3l-0.1,6.3l12.7,0.2l0.1-6.1
		C16.7,610.5,14.3,607.7,10.4,607.6z"/>
	<path class="st0" d="M31.6,575.1l3.8,0.2l-1.2,20.7l-33.5-2l0.3-4.5l29.7,1.8L31.6,575.1z"/>
	<path class="st0" d="M34.5,546.8l3.7,0.4L36,568.1l-33.3-3.6l2.2-20.8l3.7,0.4l-1.8,16.3l10.8,1.2l1.7-15.4l3.7,0.4L21.4,562
		l11.3,1.2L34.5,546.8z"/>
	<path class="st0" d="M31.3,489.2c9.3,1.8,16,9.8,13.9,20.4c-2.1,10.6-11.3,15.5-20.6,13.7c-9.3-1.8-16-9.8-13.9-20.4
		C12.8,492.3,22,487.4,31.3,489.2z M30.4,493.6c-6.9-1.3-14.4,1.8-16,10.1s4.2,14,11.1,15.3c6.9,1.3,14.4-1.8,16-10.1
		C43.1,500.7,37.3,494.9,30.4,493.6z"/>
	<path class="st0" d="M17.2,476.2l5.1-20l3.6,0.9l-4,15.7l10.5,2.7l3.7-14.4l3.6,0.9l-3.7,14.4l14.7,3.8l-1.1,4.3L17.2,476.2z"/>
	<path class="st0" d="M39.9,413.3l-3.3,9.8l28.2,9.5l-1.4,4.2l-28.2-9.5l-3.3,9.8l-3.6-1.2l8-23.7L39.9,413.3z"/>
	<path class="st0" d="M48.6,380.4l31.2,12.4l-1.7,4.1l-13.9-5.5l-6,15l13.9,5.5l-1.7,4.1l-31.2-12.4l1.7-4.1l13.8,5.5l6-15L47,384.6
		L48.6,380.4z"/>
	<path class="st0" d="M89.2,363.1l3.4,1.6l-8.9,19.1l-30.4-14.1l8.8-19l3.4,1.6l-6.9,14.9l9.8,4.6l6.5-14l3.4,1.6l-6.5,14l10.3,4.8
		L89.2,363.1z"/>
	<path class="st0" d="M74.5,326.4l24.7,7.4l3.6,1.1l0,0l-2.8-2.6l-18.9-17.4l3-5.3l24.5,7.8l3.7,1.1l0,0l-2.8-2.6L90.9,298l2.3-4.1
		l18.5,18.2l6.2,6.1l-3,5.2l-28.3-9.1l0,0l15.5,14.4l6.4,5.9l-3,5.2l-8.4-2.4l-24.9-7.1L74.5,326.4z"/>
	<path class="st0" d="M130.2,268.9c7.8,5.3,10.9,15.2,4.8,24.2c-6.1,9-16.5,9.8-24.3,4.6c-7.8-5.3-10.9-15.2-4.8-24.2
		C112,264.5,122.4,263.6,130.2,268.9z M127.7,272.6c-5.8-3.9-14-4-18.7,3c-4.7,6.9-1.6,14.5,4.2,18.4c5.8,3.9,14,4,18.7-3
		C136.6,284.1,133.6,276.5,127.7,272.6z"/>
	<path class="st0" d="M122.5,251.4l7.3-9.5c4.7-6.1,10.3-6.4,14.5-3.2c3.8,2.9,4.2,7.4,2.6,10.9c2.6-2,5.3-1.3,9.4,0.3
		c3,1.2,4.9,1.7,7.5,2.1l0.4,0.3l-2.9,3.8c-2.5-0.5-5.5-1.7-8.2-2.6c-3.2-1-6-1.5-8.5,1.7l-3.7,4.8l10.9,8.4l-2.7,3.5L122.5,251.4z
		 M142.4,251.8c2.9-3.8,2.3-7.2-0.9-9.6c-2.4-1.8-5.6-2.2-9,2.3l-4.3,5.6l9.7,7.5L142.4,251.8z"/>
	<path class="st0" d="M180.1,227.7l2.9,2.4l-13.5,15.7L144,224.1l2.9-3.4l22.6,19.4L180.1,227.7z"/>
	<path class="st0" d="M194.1,193.1c7.1,6.8,8.2,16.5,0.8,24.2l-7.2,7.5l-24.2-23.2l7-7.3C178.1,186.4,187.1,186.3,194.1,193.1z
		 M191.1,196.3c-6.2-5.9-12.8-4.6-17.7,0.5l-4.1,4.2l18.8,18l4.2-4.4C197.1,209.7,197.6,202.5,191.1,196.3z"/>
	<path class="st0" d="M232.8,159.9c2.6,3,2.3,7.4-0.7,10c-3,2.6-7.4,2.2-10-0.8c-2.5-3-2.2-7.3,0.8-9.9
		C225.9,156.6,230.2,156.9,232.8,159.9z"/>
</g>
</svg>
